<mxfile host="app.diagrams.net" agent="Mozilla/5.0 (Windows NT 10.0; Win64; x64; rv:133.0) Gecko/20100101 Firefox/133.0" version="25.0.3">
  <diagram name="Page-1" id="fLDNwV-txTs5TG_ytTZD">
    <mxGraphModel dx="3463" dy="1817" grid="1" gridSize="10" guides="1" tooltips="1" connect="1" arrows="1" fold="1" page="1" pageScale="1" pageWidth="850" pageHeight="1100" math="0" shadow="0">
      <root>
        <mxCell id="0" />
        <mxCell id="1" parent="0" />
        <mxCell id="FqAO5_lso4-B0nuIC0QS-5" value="" style="edgeStyle=none;rounded=0;orthogonalLoop=1;jettySize=auto;html=1;" edge="1" parent="1" source="FqAO5_lso4-B0nuIC0QS-1" target="FqAO5_lso4-B0nuIC0QS-4">
          <mxGeometry relative="1" as="geometry" />
        </mxCell>
        <mxCell id="FqAO5_lso4-B0nuIC0QS-1" value="" style="points=[];aspect=fixed;html=1;align=center;shadow=0;dashed=0;fillColor=#FF6A00;strokeColor=none;shape=mxgraph.alibaba_cloud.router;" vertex="1" parent="1">
          <mxGeometry x="390" y="100" width="55.2" height="57.599999999999994" as="geometry" />
        </mxCell>
        <mxCell id="FqAO5_lso4-B0nuIC0QS-2" value="" style="image;sketch=0;aspect=fixed;html=1;points=[];align=center;fontSize=12;image=img/lib/mscae/Virtual_WANs.svg;" vertex="1" parent="1">
          <mxGeometry x="180" y="10" width="50" height="50" as="geometry" />
        </mxCell>
        <mxCell id="FqAO5_lso4-B0nuIC0QS-3" value="" style="image;sketch=0;aspect=fixed;html=1;points=[];align=center;fontSize=12;image=img/lib/mscae/Virtual_WANs.svg;" vertex="1" parent="1">
          <mxGeometry x="640" width="50" height="50" as="geometry" />
        </mxCell>
        <mxCell id="FqAO5_lso4-B0nuIC0QS-4" value="Mikrotik Router&lt;br&gt;Port 1-13&lt;div&gt;&lt;br/&gt;&lt;/div&gt;" style="text;strokeColor=none;align=center;fillColor=none;html=1;verticalAlign=middle;whiteSpace=wrap;rounded=0;" vertex="1" parent="1">
          <mxGeometry x="332.6" y="160" width="170" height="30" as="geometry" />
        </mxCell>
        <mxCell id="FqAO5_lso4-B0nuIC0QS-6" value="" style="rounded=1;whiteSpace=wrap;html=1;shadow=0;comic=0;strokeColor=#036897;strokeWidth=2;fillColor=none;fontFamily=Verdana;fontSize=28;fontColor=#6881B3;align=center;arcSize=11;verticalAlign=top;" vertex="1" parent="1">
          <mxGeometry x="183" y="1555" width="1065" height="420" as="geometry" />
        </mxCell>
        <mxCell id="FqAO5_lso4-B0nuIC0QS-7" value="Campus wing C" style="rounded=1;whiteSpace=wrap;html=1;shadow=0;comic=0;strokeColor=#036897;strokeWidth=2;fillColor=none;fontFamily=Verdana;fontSize=28;fontColor=#6881B3;align=center;arcSize=11;verticalAlign=top;" vertex="1" parent="1">
          <mxGeometry x="180" y="1100" width="1065" height="420" as="geometry" />
        </mxCell>
        <mxCell id="FqAO5_lso4-B0nuIC0QS-8" value="Campus wing B" style="rounded=1;whiteSpace=wrap;html=1;shadow=0;comic=0;strokeColor=#036897;strokeWidth=2;fillColor=none;fontFamily=Verdana;fontSize=28;fontColor=#6881B3;align=center;arcSize=11;verticalAlign=top;" vertex="1" parent="1">
          <mxGeometry x="183" y="662" width="1065" height="420" as="geometry" />
        </mxCell>
        <mxCell id="FqAO5_lso4-B0nuIC0QS-9" value="Campus wing A" style="rounded=1;whiteSpace=wrap;html=1;shadow=0;comic=0;strokeColor=#036897;strokeWidth=2;fillColor=none;fontFamily=Verdana;fontSize=28;fontColor=#6881B3;align=center;arcSize=11;verticalAlign=top;" vertex="1" parent="1">
          <mxGeometry x="180" y="220" width="1065" height="420" as="geometry" />
        </mxCell>
        <mxCell id="FqAO5_lso4-B0nuIC0QS-10" style="edgeStyle=none;html=1;labelBackgroundColor=none;endArrow=none;endFill=0;strokeWidth=2;fontFamily=Verdana;fontSize=28;fontColor=#6881B3;rounded=0;" edge="1" parent="1" source="FqAO5_lso4-B0nuIC0QS-11" target="FqAO5_lso4-B0nuIC0QS-62">
          <mxGeometry relative="1" as="geometry">
            <mxPoint x="1765" y="1037.0000000000002" as="targetPoint" />
          </mxGeometry>
        </mxCell>
        <mxCell id="FqAO5_lso4-B0nuIC0QS-11" value="" style="fontColor=#0066CC;verticalAlign=top;verticalLabelPosition=bottom;labelPosition=center;align=center;html=1;fillColor=#CCCCCC;strokeColor=#6881B3;gradientColor=none;gradientDirection=north;strokeWidth=2;shape=mxgraph.networks.firewall;rounded=0;shadow=0;comic=0;" vertex="1" parent="1">
          <mxGeometry x="1595" y="1047" width="100" height="100" as="geometry" />
        </mxCell>
        <mxCell id="FqAO5_lso4-B0nuIC0QS-15" value="" style="fontColor=#0066CC;verticalAlign=top;verticalLabelPosition=bottom;labelPosition=center;align=center;html=1;fillColor=#CCCCCC;strokeColor=#6881B3;gradientColor=none;gradientDirection=north;strokeWidth=2;shape=mxgraph.networks.pc;rounded=0;shadow=0;comic=0;" vertex="1" parent="1">
          <mxGeometry x="235.00000000000028" y="510" width="100" height="70" as="geometry" />
        </mxCell>
        <mxCell id="FqAO5_lso4-B0nuIC0QS-16" value="" style="fontColor=#0066CC;verticalAlign=top;verticalLabelPosition=bottom;labelPosition=center;align=center;html=1;fillColor=#CCCCCC;strokeColor=#6881B3;gradientColor=none;gradientDirection=north;strokeWidth=2;shape=mxgraph.networks.pc;rounded=0;shadow=0;comic=0;" vertex="1" parent="1">
          <mxGeometry x="375.0000000000003" y="510" width="100" height="70" as="geometry" />
        </mxCell>
        <mxCell id="FqAO5_lso4-B0nuIC0QS-17" value="" style="fontColor=#0066CC;verticalAlign=top;verticalLabelPosition=bottom;labelPosition=center;align=center;html=1;fillColor=#CCCCCC;strokeColor=#6881B3;gradientColor=none;gradientDirection=north;strokeWidth=2;shape=mxgraph.networks.pc;rounded=0;shadow=0;comic=0;" vertex="1" parent="1">
          <mxGeometry x="495.0000000000002" y="510" width="100" height="70" as="geometry" />
        </mxCell>
        <mxCell id="FqAO5_lso4-B0nuIC0QS-18" value="" style="fontColor=#0066CC;verticalAlign=top;verticalLabelPosition=bottom;labelPosition=center;align=center;html=1;fillColor=#CCCCCC;strokeColor=#6881B3;gradientColor=none;gradientDirection=north;strokeWidth=2;shape=mxgraph.networks.pc;rounded=0;shadow=0;comic=0;" vertex="1" parent="1">
          <mxGeometry x="615.0000000000002" y="510" width="100" height="70" as="geometry" />
        </mxCell>
        <mxCell id="FqAO5_lso4-B0nuIC0QS-19" value="" style="fontColor=#0066CC;verticalAlign=top;verticalLabelPosition=bottom;labelPosition=center;align=center;html=1;fillColor=#CCCCCC;strokeColor=#6881B3;gradientColor=none;gradientDirection=north;strokeWidth=2;shape=mxgraph.networks.pc;rounded=0;shadow=0;comic=0;" vertex="1" parent="1">
          <mxGeometry x="745.0000000000002" y="510" width="100" height="70" as="geometry" />
        </mxCell>
        <mxCell id="FqAO5_lso4-B0nuIC0QS-20" value="" style="fontColor=#0066CC;verticalAlign=top;verticalLabelPosition=bottom;labelPosition=center;align=center;html=1;fillColor=#CCCCCC;strokeColor=#6881B3;gradientColor=none;gradientDirection=north;strokeWidth=2;shape=mxgraph.networks.printer;rounded=0;shadow=0;comic=0;" vertex="1" parent="1">
          <mxGeometry x="875.0000000000002" y="495" width="100" height="100" as="geometry" />
        </mxCell>
        <mxCell id="FqAO5_lso4-B0nuIC0QS-21" value="" style="fontColor=#0066CC;verticalAlign=top;verticalLabelPosition=bottom;labelPosition=center;align=center;html=1;fillColor=#CCCCCC;strokeColor=#6881B3;gradientColor=none;gradientDirection=north;strokeWidth=2;shape=mxgraph.networks.wireless_hub;rounded=0;shadow=0;comic=0;" vertex="1" parent="1">
          <mxGeometry x="775.0000000000002" y="320" width="100" height="85" as="geometry" />
        </mxCell>
        <mxCell id="FqAO5_lso4-B0nuIC0QS-22" style="edgeStyle=none;html=1;labelBackgroundColor=none;endArrow=none;endFill=0;strokeWidth=2;fontFamily=Verdana;fontSize=15;fontColor=#036897;rounded=0;" edge="1" parent="1" source="FqAO5_lso4-B0nuIC0QS-15" target="FqAO5_lso4-B0nuIC0QS-21">
          <mxGeometry relative="1" as="geometry">
            <mxPoint x="755.0000000000002" y="440" as="targetPoint" />
          </mxGeometry>
        </mxCell>
        <mxCell id="FqAO5_lso4-B0nuIC0QS-23" style="edgeStyle=none;html=1;labelBackgroundColor=none;endArrow=none;endFill=0;strokeWidth=2;fontFamily=Verdana;fontSize=15;fontColor=#036897;rounded=0;" edge="1" parent="1" source="FqAO5_lso4-B0nuIC0QS-17" target="FqAO5_lso4-B0nuIC0QS-21">
          <mxGeometry relative="1" as="geometry" />
        </mxCell>
        <mxCell id="FqAO5_lso4-B0nuIC0QS-24" style="edgeStyle=none;html=1;labelBackgroundColor=none;endArrow=none;endFill=0;strokeWidth=2;fontFamily=Verdana;fontSize=15;fontColor=#036897;rounded=0;" edge="1" parent="1" source="FqAO5_lso4-B0nuIC0QS-18" target="FqAO5_lso4-B0nuIC0QS-21">
          <mxGeometry relative="1" as="geometry" />
        </mxCell>
        <mxCell id="FqAO5_lso4-B0nuIC0QS-25" style="edgeStyle=none;html=1;labelBackgroundColor=none;endArrow=none;endFill=0;strokeWidth=2;fontFamily=Verdana;fontSize=15;fontColor=#036897;rounded=0;" edge="1" parent="1" source="FqAO5_lso4-B0nuIC0QS-19" target="FqAO5_lso4-B0nuIC0QS-21">
          <mxGeometry relative="1" as="geometry" />
        </mxCell>
        <mxCell id="FqAO5_lso4-B0nuIC0QS-26" style="edgeStyle=none;html=1;labelBackgroundColor=none;endArrow=none;endFill=0;strokeWidth=2;fontFamily=Verdana;fontSize=15;fontColor=#036897;rounded=0;" edge="1" parent="1" source="FqAO5_lso4-B0nuIC0QS-20" target="FqAO5_lso4-B0nuIC0QS-21">
          <mxGeometry relative="1" as="geometry" />
        </mxCell>
        <mxCell id="FqAO5_lso4-B0nuIC0QS-27" value="" style="html=1;fillColor=#CCCCCC;strokeColor=#6881B3;gradientColor=none;gradientDirection=north;strokeWidth=2;shape=mxgraph.networks.comm_link_edge;html=1;labelBackgroundColor=none;endArrow=none;endFill=0;fontFamily=Verdana;fontSize=20;rounded=0;" edge="1" parent="1" source="FqAO5_lso4-B0nuIC0QS-21" target="FqAO5_lso4-B0nuIC0QS-28">
          <mxGeometry width="100" height="100" relative="1" as="geometry">
            <mxPoint x="1005.0000000000002" y="420" as="sourcePoint" />
            <mxPoint x="708.0000000000002" y="333" as="targetPoint" />
          </mxGeometry>
        </mxCell>
        <mxCell id="FqAO5_lso4-B0nuIC0QS-28" value="" style="fontColor=#0066CC;verticalAlign=top;verticalLabelPosition=bottom;labelPosition=center;align=center;html=1;fillColor=#CCCCCC;strokeColor=#6881B3;gradientColor=none;gradientDirection=north;strokeWidth=2;shape=mxgraph.networks.mobile;rounded=0;shadow=0;comic=0;" vertex="1" parent="1">
          <mxGeometry x="425.0000000000003" y="230" width="50" height="100" as="geometry" />
        </mxCell>
        <mxCell id="FqAO5_lso4-B0nuIC0QS-29" value="" style="fontColor=#0066CC;verticalAlign=top;verticalLabelPosition=bottom;labelPosition=center;align=center;html=1;fillColor=#CCCCCC;strokeColor=#6881B3;gradientColor=none;gradientDirection=north;strokeWidth=2;shape=mxgraph.networks.pc;rounded=0;shadow=0;comic=0;" vertex="1" parent="1">
          <mxGeometry x="235.00000000000028" y="965" width="100" height="70" as="geometry" />
        </mxCell>
        <mxCell id="FqAO5_lso4-B0nuIC0QS-30" value="" style="fontColor=#0066CC;verticalAlign=top;verticalLabelPosition=bottom;labelPosition=center;align=center;html=1;fillColor=#CCCCCC;strokeColor=#6881B3;gradientColor=none;gradientDirection=north;strokeWidth=2;shape=mxgraph.networks.pc;rounded=0;shadow=0;comic=0;" vertex="1" parent="1">
          <mxGeometry x="375.0000000000003" y="965" width="100" height="70" as="geometry" />
        </mxCell>
        <mxCell id="FqAO5_lso4-B0nuIC0QS-31" value="" style="fontColor=#0066CC;verticalAlign=top;verticalLabelPosition=bottom;labelPosition=center;align=center;html=1;fillColor=#CCCCCC;strokeColor=#6881B3;gradientColor=none;gradientDirection=north;strokeWidth=2;shape=mxgraph.networks.pc;rounded=0;shadow=0;comic=0;" vertex="1" parent="1">
          <mxGeometry x="495.0000000000002" y="965" width="100" height="70" as="geometry" />
        </mxCell>
        <mxCell id="FqAO5_lso4-B0nuIC0QS-32" value="" style="fontColor=#0066CC;verticalAlign=top;verticalLabelPosition=bottom;labelPosition=center;align=center;html=1;fillColor=#CCCCCC;strokeColor=#6881B3;gradientColor=none;gradientDirection=north;strokeWidth=2;shape=mxgraph.networks.pc;rounded=0;shadow=0;comic=0;" vertex="1" parent="1">
          <mxGeometry x="615.0000000000002" y="965" width="100" height="70" as="geometry" />
        </mxCell>
        <mxCell id="FqAO5_lso4-B0nuIC0QS-33" value="" style="fontColor=#0066CC;verticalAlign=top;verticalLabelPosition=bottom;labelPosition=center;align=center;html=1;fillColor=#CCCCCC;strokeColor=#6881B3;gradientColor=none;gradientDirection=north;strokeWidth=2;shape=mxgraph.networks.pc;rounded=0;shadow=0;comic=0;" vertex="1" parent="1">
          <mxGeometry x="745.0000000000002" y="965" width="100" height="70" as="geometry" />
        </mxCell>
        <mxCell id="FqAO5_lso4-B0nuIC0QS-34" value="" style="fontColor=#0066CC;verticalAlign=top;verticalLabelPosition=bottom;labelPosition=center;align=center;html=1;fillColor=#CCCCCC;strokeColor=#6881B3;gradientColor=none;gradientDirection=north;strokeWidth=2;shape=mxgraph.networks.printer;rounded=0;shadow=0;comic=0;" vertex="1" parent="1">
          <mxGeometry x="875.0000000000002" y="950" width="100" height="100" as="geometry" />
        </mxCell>
        <mxCell id="FqAO5_lso4-B0nuIC0QS-36" value="" style="fontColor=#0066CC;verticalAlign=top;verticalLabelPosition=bottom;labelPosition=center;align=center;html=1;fillColor=#CCCCCC;strokeColor=#6881B3;gradientColor=none;gradientDirection=north;strokeWidth=2;shape=mxgraph.networks.wireless_hub;rounded=0;shadow=0;comic=0;" vertex="1" parent="1">
          <mxGeometry x="775.0000000000002" y="775" width="100" height="85" as="geometry" />
        </mxCell>
        <mxCell id="FqAO5_lso4-B0nuIC0QS-37" style="edgeStyle=none;html=1;labelBackgroundColor=none;endArrow=none;endFill=0;strokeWidth=2;fontFamily=Verdana;fontSize=15;fontColor=#036897;rounded=0;" edge="1" parent="1" source="FqAO5_lso4-B0nuIC0QS-29" target="FqAO5_lso4-B0nuIC0QS-36">
          <mxGeometry relative="1" as="geometry">
            <mxPoint x="755.0000000000002" y="895" as="targetPoint" />
          </mxGeometry>
        </mxCell>
        <mxCell id="FqAO5_lso4-B0nuIC0QS-38" style="edgeStyle=none;html=1;labelBackgroundColor=none;endArrow=none;endFill=0;strokeWidth=2;fontFamily=Verdana;fontSize=15;fontColor=#036897;rounded=0;" edge="1" parent="1" source="FqAO5_lso4-B0nuIC0QS-31" target="FqAO5_lso4-B0nuIC0QS-36">
          <mxGeometry relative="1" as="geometry" />
        </mxCell>
        <mxCell id="FqAO5_lso4-B0nuIC0QS-39" style="edgeStyle=none;html=1;labelBackgroundColor=none;endArrow=none;endFill=0;strokeWidth=2;fontFamily=Verdana;fontSize=15;fontColor=#036897;rounded=0;" edge="1" parent="1" source="FqAO5_lso4-B0nuIC0QS-32" target="FqAO5_lso4-B0nuIC0QS-36">
          <mxGeometry relative="1" as="geometry" />
        </mxCell>
        <mxCell id="FqAO5_lso4-B0nuIC0QS-40" style="edgeStyle=none;html=1;labelBackgroundColor=none;endArrow=none;endFill=0;strokeWidth=2;fontFamily=Verdana;fontSize=15;fontColor=#036897;rounded=0;" edge="1" parent="1" source="FqAO5_lso4-B0nuIC0QS-33" target="FqAO5_lso4-B0nuIC0QS-36">
          <mxGeometry relative="1" as="geometry" />
        </mxCell>
        <mxCell id="FqAO5_lso4-B0nuIC0QS-41" style="edgeStyle=none;html=1;labelBackgroundColor=none;endArrow=none;endFill=0;strokeWidth=2;fontFamily=Verdana;fontSize=15;fontColor=#036897;rounded=0;" edge="1" parent="1" source="FqAO5_lso4-B0nuIC0QS-34" target="FqAO5_lso4-B0nuIC0QS-36">
          <mxGeometry relative="1" as="geometry" />
        </mxCell>
        <mxCell id="FqAO5_lso4-B0nuIC0QS-42" value="" style="html=1;fillColor=#CCCCCC;strokeColor=#6881B3;gradientColor=none;gradientDirection=north;strokeWidth=2;shape=mxgraph.networks.comm_link_edge;html=1;labelBackgroundColor=none;endArrow=none;endFill=0;fontFamily=Verdana;fontSize=20;rounded=0;" edge="1" parent="1" source="FqAO5_lso4-B0nuIC0QS-36" target="FqAO5_lso4-B0nuIC0QS-43">
          <mxGeometry width="100" height="100" relative="1" as="geometry">
            <mxPoint x="1005.0000000000002" y="875" as="sourcePoint" />
            <mxPoint x="708.0000000000002" y="788" as="targetPoint" />
          </mxGeometry>
        </mxCell>
        <mxCell id="FqAO5_lso4-B0nuIC0QS-43" value="" style="fontColor=#0066CC;verticalAlign=top;verticalLabelPosition=bottom;labelPosition=center;align=center;html=1;fillColor=#CCCCCC;strokeColor=#6881B3;gradientColor=none;gradientDirection=north;strokeWidth=2;shape=mxgraph.networks.mobile;rounded=0;shadow=0;comic=0;" vertex="1" parent="1">
          <mxGeometry x="425.0000000000003" y="685" width="50" height="100" as="geometry" />
        </mxCell>
        <mxCell id="FqAO5_lso4-B0nuIC0QS-44" value="" style="fontColor=#0066CC;verticalAlign=top;verticalLabelPosition=bottom;labelPosition=center;align=center;html=1;fillColor=#CCCCCC;strokeColor=#6881B3;gradientColor=none;gradientDirection=north;strokeWidth=2;shape=mxgraph.networks.pc;rounded=0;shadow=0;comic=0;" vertex="1" parent="1">
          <mxGeometry x="235.00000000000023" y="1399.4117647058824" width="100" height="70" as="geometry" />
        </mxCell>
        <mxCell id="FqAO5_lso4-B0nuIC0QS-45" value="" style="fontColor=#0066CC;verticalAlign=top;verticalLabelPosition=bottom;labelPosition=center;align=center;html=1;fillColor=#CCCCCC;strokeColor=#6881B3;gradientColor=none;gradientDirection=north;strokeWidth=2;shape=mxgraph.networks.pc;rounded=0;shadow=0;comic=0;" vertex="1" parent="1">
          <mxGeometry x="375.0000000000002" y="1399.4117647058824" width="100" height="70" as="geometry" />
        </mxCell>
        <mxCell id="FqAO5_lso4-B0nuIC0QS-46" value="" style="fontColor=#0066CC;verticalAlign=top;verticalLabelPosition=bottom;labelPosition=center;align=center;html=1;fillColor=#CCCCCC;strokeColor=#6881B3;gradientColor=none;gradientDirection=north;strokeWidth=2;shape=mxgraph.networks.pc;rounded=0;shadow=0;comic=0;" vertex="1" parent="1">
          <mxGeometry x="495.0000000000002" y="1399.4117647058824" width="100" height="70" as="geometry" />
        </mxCell>
        <mxCell id="FqAO5_lso4-B0nuIC0QS-47" value="" style="fontColor=#0066CC;verticalAlign=top;verticalLabelPosition=bottom;labelPosition=center;align=center;html=1;fillColor=#CCCCCC;strokeColor=#6881B3;gradientColor=none;gradientDirection=north;strokeWidth=2;shape=mxgraph.networks.pc;rounded=0;shadow=0;comic=0;" vertex="1" parent="1">
          <mxGeometry x="615.0000000000002" y="1399.4117647058824" width="100" height="70" as="geometry" />
        </mxCell>
        <mxCell id="FqAO5_lso4-B0nuIC0QS-48" value="" style="fontColor=#0066CC;verticalAlign=top;verticalLabelPosition=bottom;labelPosition=center;align=center;html=1;fillColor=#CCCCCC;strokeColor=#6881B3;gradientColor=none;gradientDirection=north;strokeWidth=2;shape=mxgraph.networks.pc;rounded=0;shadow=0;comic=0;" vertex="1" parent="1">
          <mxGeometry x="745.0000000000002" y="1399.4117647058824" width="100" height="70" as="geometry" />
        </mxCell>
        <mxCell id="FqAO5_lso4-B0nuIC0QS-49" value="" style="fontColor=#0066CC;verticalAlign=top;verticalLabelPosition=bottom;labelPosition=center;align=center;html=1;fillColor=#CCCCCC;strokeColor=#6881B3;gradientColor=none;gradientDirection=north;strokeWidth=2;shape=mxgraph.networks.printer;rounded=0;shadow=0;comic=0;" vertex="1" parent="1">
          <mxGeometry x="875.0000000000002" y="1384.4117647058824" width="100" height="100" as="geometry" />
        </mxCell>
        <mxCell id="FqAO5_lso4-B0nuIC0QS-51" value="" style="fontColor=#0066CC;verticalAlign=top;verticalLabelPosition=bottom;labelPosition=center;align=center;html=1;fillColor=#CCCCCC;strokeColor=#6881B3;gradientColor=none;gradientDirection=north;strokeWidth=2;shape=mxgraph.networks.wireless_hub;rounded=0;shadow=0;comic=0;" vertex="1" parent="1">
          <mxGeometry x="775.0000000000002" y="1209.4117647058824" width="100" height="85" as="geometry" />
        </mxCell>
        <mxCell id="FqAO5_lso4-B0nuIC0QS-52" style="edgeStyle=none;html=1;labelBackgroundColor=none;endArrow=none;endFill=0;strokeWidth=2;fontFamily=Verdana;fontSize=15;fontColor=#036897;rounded=0;" edge="1" parent="1" source="FqAO5_lso4-B0nuIC0QS-44" target="FqAO5_lso4-B0nuIC0QS-51">
          <mxGeometry relative="1" as="geometry">
            <mxPoint x="755.0000000000002" y="1329.4117647058824" as="targetPoint" />
          </mxGeometry>
        </mxCell>
        <mxCell id="FqAO5_lso4-B0nuIC0QS-53" style="edgeStyle=none;html=1;labelBackgroundColor=none;endArrow=none;endFill=0;strokeWidth=2;fontFamily=Verdana;fontSize=15;fontColor=#036897;rounded=0;" edge="1" parent="1" source="FqAO5_lso4-B0nuIC0QS-46" target="FqAO5_lso4-B0nuIC0QS-51">
          <mxGeometry relative="1" as="geometry" />
        </mxCell>
        <mxCell id="FqAO5_lso4-B0nuIC0QS-54" style="edgeStyle=none;html=1;labelBackgroundColor=none;endArrow=none;endFill=0;strokeWidth=2;fontFamily=Verdana;fontSize=15;fontColor=#036897;rounded=0;" edge="1" parent="1" source="FqAO5_lso4-B0nuIC0QS-47" target="FqAO5_lso4-B0nuIC0QS-51">
          <mxGeometry relative="1" as="geometry" />
        </mxCell>
        <mxCell id="FqAO5_lso4-B0nuIC0QS-55" style="edgeStyle=none;html=1;labelBackgroundColor=none;endArrow=none;endFill=0;strokeWidth=2;fontFamily=Verdana;fontSize=15;fontColor=#036897;rounded=0;" edge="1" parent="1" source="FqAO5_lso4-B0nuIC0QS-48" target="FqAO5_lso4-B0nuIC0QS-51">
          <mxGeometry relative="1" as="geometry" />
        </mxCell>
        <mxCell id="FqAO5_lso4-B0nuIC0QS-56" style="edgeStyle=none;html=1;labelBackgroundColor=none;endArrow=none;endFill=0;strokeWidth=2;fontFamily=Verdana;fontSize=15;fontColor=#036897;rounded=0;" edge="1" parent="1" source="FqAO5_lso4-B0nuIC0QS-49" target="FqAO5_lso4-B0nuIC0QS-51">
          <mxGeometry relative="1" as="geometry" />
        </mxCell>
        <mxCell id="FqAO5_lso4-B0nuIC0QS-57" value="" style="html=1;fillColor=#CCCCCC;strokeColor=#6881B3;gradientColor=none;gradientDirection=north;strokeWidth=2;shape=mxgraph.networks.comm_link_edge;html=1;labelBackgroundColor=none;endArrow=none;endFill=0;fontFamily=Verdana;fontSize=20;rounded=0;" edge="1" parent="1" source="FqAO5_lso4-B0nuIC0QS-51" target="FqAO5_lso4-B0nuIC0QS-58">
          <mxGeometry width="100" height="100" relative="1" as="geometry">
            <mxPoint x="1005.0000000000002" y="1309.4117647058824" as="sourcePoint" />
            <mxPoint x="708.0000000000002" y="1222.4117647058824" as="targetPoint" />
          </mxGeometry>
        </mxCell>
        <mxCell id="FqAO5_lso4-B0nuIC0QS-58" value="" style="fontColor=#0066CC;verticalAlign=top;verticalLabelPosition=bottom;labelPosition=center;align=center;html=1;fillColor=#CCCCCC;strokeColor=#6881B3;gradientColor=none;gradientDirection=north;strokeWidth=2;shape=mxgraph.networks.mobile;rounded=0;shadow=0;comic=0;" vertex="1" parent="1">
          <mxGeometry x="425.0000000000002" y="1119.4117647058824" width="50" height="100" as="geometry" />
        </mxCell>
        <mxCell id="FqAO5_lso4-B0nuIC0QS-59" value="Internet" style="html=1;fillColor=#CCCCCC;strokeColor=#6881B3;gradientColor=none;gradientDirection=north;strokeWidth=2;shape=mxgraph.networks.cloud;fontColor=#6881B3;rounded=0;shadow=0;comic=0;align=center;fontSize=28;" vertex="1" parent="1">
          <mxGeometry x="1865" y="889" width="330" height="140" as="geometry" />
        </mxCell>
        <mxCell id="FqAO5_lso4-B0nuIC0QS-60" style="edgeStyle=none;html=1;labelBackgroundColor=none;endArrow=none;endFill=0;strokeWidth=2;fontFamily=Verdana;fontSize=28;fontColor=#6881B3;rounded=0;" edge="1" parent="1" source="FqAO5_lso4-B0nuIC0QS-62" target="FqAO5_lso4-B0nuIC0QS-59">
          <mxGeometry relative="1" as="geometry" />
        </mxCell>
        <mxCell id="FqAO5_lso4-B0nuIC0QS-61" style="edgeStyle=none;html=1;labelBackgroundColor=none;endArrow=none;endFill=0;strokeWidth=2;fontFamily=Verdana;fontSize=28;fontColor=#6881B3;rounded=0;" edge="1" parent="1" source="FqAO5_lso4-B0nuIC0QS-62" target="FqAO5_lso4-B0nuIC0QS-82">
          <mxGeometry relative="1" as="geometry" />
        </mxCell>
        <mxCell id="FqAO5_lso4-B0nuIC0QS-62" value="" style="fontColor=#0066CC;verticalAlign=top;verticalLabelPosition=bottom;labelPosition=center;align=center;html=1;fillColor=#CCCCCC;strokeColor=#6881B3;gradientColor=none;gradientDirection=north;strokeWidth=2;shape=mxgraph.networks.router;rounded=0;shadow=0;comic=0;" vertex="1" parent="1">
          <mxGeometry x="1745" y="1082" width="100" height="30" as="geometry" />
        </mxCell>
        <mxCell id="FqAO5_lso4-B0nuIC0QS-63" style="edgeStyle=none;html=1;labelBackgroundColor=none;endArrow=none;endFill=0;strokeWidth=2;fontFamily=Verdana;fontSize=28;fontColor=#6881B3;rounded=0;" edge="1" parent="1" source="FqAO5_lso4-B0nuIC0QS-64" target="FqAO5_lso4-B0nuIC0QS-62">
          <mxGeometry relative="1" as="geometry" />
        </mxCell>
        <mxCell id="FqAO5_lso4-B0nuIC0QS-64" value="" style="fontColor=#0066CC;verticalAlign=top;verticalLabelPosition=bottom;labelPosition=center;align=center;html=1;fillColor=#CCCCCC;strokeColor=#6881B3;gradientColor=none;gradientDirection=north;strokeWidth=2;shape=mxgraph.networks.storage;rounded=0;shadow=0;comic=0;" vertex="1" parent="1">
          <mxGeometry x="1615" y="1279" width="100" height="100" as="geometry" />
        </mxCell>
        <mxCell id="FqAO5_lso4-B0nuIC0QS-65" style="edgeStyle=none;html=1;labelBackgroundColor=none;endArrow=none;endFill=0;strokeWidth=2;fontFamily=Verdana;fontSize=28;fontColor=#6881B3;rounded=0;" edge="1" parent="1" source="FqAO5_lso4-B0nuIC0QS-66" target="FqAO5_lso4-B0nuIC0QS-62">
          <mxGeometry relative="1" as="geometry">
            <mxPoint x="1675" y="1027" as="targetPoint" />
          </mxGeometry>
        </mxCell>
        <mxCell id="FqAO5_lso4-B0nuIC0QS-66" value="" style="fontColor=#0066CC;verticalAlign=top;verticalLabelPosition=bottom;labelPosition=center;align=center;html=1;fillColor=#CCCCCC;strokeColor=#6881B3;gradientColor=none;gradientDirection=north;strokeWidth=2;shape=mxgraph.networks.server_storage;rounded=0;shadow=0;comic=0;" vertex="1" parent="1">
          <mxGeometry x="1645" y="805" width="105" height="105" as="geometry" />
        </mxCell>
        <mxCell id="FqAO5_lso4-B0nuIC0QS-67" value="" style="fontColor=#0066CC;verticalAlign=top;verticalLabelPosition=bottom;labelPosition=center;align=center;html=1;fillColor=#CCCCCC;strokeColor=#6881B3;gradientColor=none;gradientDirection=north;strokeWidth=2;shape=mxgraph.networks.pc;rounded=0;shadow=0;comic=0;" vertex="1" parent="1">
          <mxGeometry x="235.00000000000023" y="1870.4117647058824" width="100" height="70" as="geometry" />
        </mxCell>
        <mxCell id="FqAO5_lso4-B0nuIC0QS-68" value="" style="fontColor=#0066CC;verticalAlign=top;verticalLabelPosition=bottom;labelPosition=center;align=center;html=1;fillColor=#CCCCCC;strokeColor=#6881B3;gradientColor=none;gradientDirection=north;strokeWidth=2;shape=mxgraph.networks.pc;rounded=0;shadow=0;comic=0;" vertex="1" parent="1">
          <mxGeometry x="375.0000000000002" y="1870.4117647058824" width="100" height="70" as="geometry" />
        </mxCell>
        <mxCell id="FqAO5_lso4-B0nuIC0QS-69" value="" style="fontColor=#0066CC;verticalAlign=top;verticalLabelPosition=bottom;labelPosition=center;align=center;html=1;fillColor=#CCCCCC;strokeColor=#6881B3;gradientColor=none;gradientDirection=north;strokeWidth=2;shape=mxgraph.networks.pc;rounded=0;shadow=0;comic=0;" vertex="1" parent="1">
          <mxGeometry x="495.0000000000002" y="1870.4117647058824" width="100" height="70" as="geometry" />
        </mxCell>
        <mxCell id="FqAO5_lso4-B0nuIC0QS-70" value="" style="fontColor=#0066CC;verticalAlign=top;verticalLabelPosition=bottom;labelPosition=center;align=center;html=1;fillColor=#CCCCCC;strokeColor=#6881B3;gradientColor=none;gradientDirection=north;strokeWidth=2;shape=mxgraph.networks.pc;rounded=0;shadow=0;comic=0;" vertex="1" parent="1">
          <mxGeometry x="615.0000000000002" y="1870.4117647058824" width="100" height="70" as="geometry" />
        </mxCell>
        <mxCell id="FqAO5_lso4-B0nuIC0QS-71" value="" style="fontColor=#0066CC;verticalAlign=top;verticalLabelPosition=bottom;labelPosition=center;align=center;html=1;fillColor=#CCCCCC;strokeColor=#6881B3;gradientColor=none;gradientDirection=north;strokeWidth=2;shape=mxgraph.networks.pc;rounded=0;shadow=0;comic=0;" vertex="1" parent="1">
          <mxGeometry x="745.0000000000002" y="1870.4117647058824" width="100" height="70" as="geometry" />
        </mxCell>
        <mxCell id="FqAO5_lso4-B0nuIC0QS-72" value="" style="fontColor=#0066CC;verticalAlign=top;verticalLabelPosition=bottom;labelPosition=center;align=center;html=1;fillColor=#CCCCCC;strokeColor=#6881B3;gradientColor=none;gradientDirection=north;strokeWidth=2;shape=mxgraph.networks.printer;rounded=0;shadow=0;comic=0;" vertex="1" parent="1">
          <mxGeometry x="875.0000000000002" y="1855.4117647058824" width="100" height="100" as="geometry" />
        </mxCell>
        <mxCell id="FqAO5_lso4-B0nuIC0QS-74" value="" style="fontColor=#0066CC;verticalAlign=top;verticalLabelPosition=bottom;labelPosition=center;align=center;html=1;fillColor=#CCCCCC;strokeColor=#6881B3;gradientColor=none;gradientDirection=north;strokeWidth=2;shape=mxgraph.networks.wireless_hub;rounded=0;shadow=0;comic=0;" vertex="1" parent="1">
          <mxGeometry x="775.0000000000002" y="1680.4117647058824" width="100" height="85" as="geometry" />
        </mxCell>
        <mxCell id="FqAO5_lso4-B0nuIC0QS-75" style="edgeStyle=none;html=1;labelBackgroundColor=none;endArrow=none;endFill=0;strokeWidth=2;fontFamily=Verdana;fontSize=15;fontColor=#036897;rounded=0;" edge="1" parent="1" source="FqAO5_lso4-B0nuIC0QS-67" target="FqAO5_lso4-B0nuIC0QS-74">
          <mxGeometry relative="1" as="geometry">
            <mxPoint x="755.0000000000002" y="1800.4117647058824" as="targetPoint" />
          </mxGeometry>
        </mxCell>
        <mxCell id="FqAO5_lso4-B0nuIC0QS-76" style="edgeStyle=none;html=1;labelBackgroundColor=none;endArrow=none;endFill=0;strokeWidth=2;fontFamily=Verdana;fontSize=15;fontColor=#036897;rounded=0;" edge="1" parent="1" source="FqAO5_lso4-B0nuIC0QS-69" target="FqAO5_lso4-B0nuIC0QS-74">
          <mxGeometry relative="1" as="geometry" />
        </mxCell>
        <mxCell id="FqAO5_lso4-B0nuIC0QS-77" style="edgeStyle=none;html=1;labelBackgroundColor=none;endArrow=none;endFill=0;strokeWidth=2;fontFamily=Verdana;fontSize=15;fontColor=#036897;rounded=0;" edge="1" parent="1" source="FqAO5_lso4-B0nuIC0QS-70" target="FqAO5_lso4-B0nuIC0QS-74">
          <mxGeometry relative="1" as="geometry" />
        </mxCell>
        <mxCell id="FqAO5_lso4-B0nuIC0QS-78" style="edgeStyle=none;html=1;labelBackgroundColor=none;endArrow=none;endFill=0;strokeWidth=2;fontFamily=Verdana;fontSize=15;fontColor=#036897;rounded=0;" edge="1" parent="1" source="FqAO5_lso4-B0nuIC0QS-71" target="FqAO5_lso4-B0nuIC0QS-74">
          <mxGeometry relative="1" as="geometry" />
        </mxCell>
        <mxCell id="FqAO5_lso4-B0nuIC0QS-79" style="edgeStyle=none;html=1;labelBackgroundColor=none;endArrow=none;endFill=0;strokeWidth=2;fontFamily=Verdana;fontSize=15;fontColor=#036897;rounded=0;" edge="1" parent="1" source="FqAO5_lso4-B0nuIC0QS-72" target="FqAO5_lso4-B0nuIC0QS-74">
          <mxGeometry relative="1" as="geometry" />
        </mxCell>
        <mxCell id="FqAO5_lso4-B0nuIC0QS-80" value="" style="html=1;fillColor=#CCCCCC;strokeColor=#6881B3;gradientColor=none;gradientDirection=north;strokeWidth=2;shape=mxgraph.networks.comm_link_edge;html=1;labelBackgroundColor=none;endArrow=none;endFill=0;fontFamily=Verdana;fontSize=20;rounded=0;" edge="1" parent="1" source="FqAO5_lso4-B0nuIC0QS-74" target="FqAO5_lso4-B0nuIC0QS-81">
          <mxGeometry width="100" height="100" relative="1" as="geometry">
            <mxPoint x="1005.0000000000002" y="1780.4117647058824" as="sourcePoint" />
            <mxPoint x="708.0000000000002" y="1693.4117647058824" as="targetPoint" />
          </mxGeometry>
        </mxCell>
        <mxCell id="FqAO5_lso4-B0nuIC0QS-81" value="" style="fontColor=#0066CC;verticalAlign=top;verticalLabelPosition=bottom;labelPosition=center;align=center;html=1;fillColor=#CCCCCC;strokeColor=#6881B3;gradientColor=none;gradientDirection=north;strokeWidth=2;shape=mxgraph.networks.mobile;rounded=0;shadow=0;comic=0;" vertex="1" parent="1">
          <mxGeometry x="425.0000000000002" y="1590.4117647058824" width="50" height="100" as="geometry" />
        </mxCell>
        <mxCell id="FqAO5_lso4-B0nuIC0QS-82" value="Campus 2" style="html=1;fillColor=#CCCCCC;strokeColor=#6881B3;gradientColor=none;gradientDirection=north;strokeWidth=2;shape=mxgraph.networks.cloud;fontColor=#6881B3;rounded=0;shadow=0;comic=0;align=center;fontSize=28;" vertex="1" parent="1">
          <mxGeometry x="1845" y="1244" width="330" height="140" as="geometry" />
        </mxCell>
        <mxCell id="FqAO5_lso4-B0nuIC0QS-95" style="edgeStyle=none;rounded=0;orthogonalLoop=1;jettySize=auto;html=1;exitX=0.95;exitY=0.05;exitDx=0;exitDy=0;exitPerimeter=0;" edge="1" parent="1">
          <mxGeometry relative="1" as="geometry">
            <mxPoint x="1496.166666666667" y="1441" as="targetPoint" />
            <mxPoint x="1492.5" y="1432.5" as="sourcePoint" />
          </mxGeometry>
        </mxCell>
        <mxCell id="FqAO5_lso4-B0nuIC0QS-98" style="edgeStyle=none;rounded=0;orthogonalLoop=1;jettySize=auto;html=1;exitX=0.5;exitY=0;exitDx=0;exitDy=0;exitPerimeter=0;entryX=0.5;entryY=1;entryDx=0;entryDy=0;entryPerimeter=0;" edge="1" parent="1">
          <mxGeometry relative="1" as="geometry">
            <mxPoint x="1447.5" y="1431" as="sourcePoint" />
            <mxPoint x="1447.5" y="1461" as="targetPoint" />
          </mxGeometry>
        </mxCell>
        <mxCell id="FqAO5_lso4-B0nuIC0QS-103" value="" style="image;points=[];aspect=fixed;html=1;align=center;shadow=0;dashed=0;image=img/lib/allied_telesis/switch/Switch_24_port_L2_POE.svg;" vertex="1" parent="1">
          <mxGeometry x="1370" y="1410" width="195" height="133.67" as="geometry" />
        </mxCell>
        <mxCell id="FqAO5_lso4-B0nuIC0QS-104" value="" style="image;points=[];aspect=fixed;html=1;align=center;shadow=0;dashed=0;image=img/lib/allied_telesis/switch/Switch_24_port_L2_POE.svg;" vertex="1" parent="1">
          <mxGeometry x="1380" y="1620" width="195" height="133.67" as="geometry" />
        </mxCell>
        <mxCell id="FqAO5_lso4-B0nuIC0QS-105" value="" style="image;points=[];aspect=fixed;html=1;align=center;shadow=0;dashed=0;image=img/lib/allied_telesis/switch/Switch_24_port_L2.svg;" vertex="1" parent="1">
          <mxGeometry x="1379.97" y="870" width="175.06" height="120" as="geometry" />
        </mxCell>
        <mxCell id="FqAO5_lso4-B0nuIC0QS-106" value="" style="image;points=[];aspect=fixed;html=1;align=center;shadow=0;dashed=0;image=img/lib/allied_telesis/switch/Switch_24_port_L2.svg;" vertex="1" parent="1">
          <mxGeometry x="1370" y="660" width="175.06" height="120" as="geometry" />
        </mxCell>
        <mxCell id="FqAO5_lso4-B0nuIC0QS-108" value="" style="image;points=[];aspect=fixed;html=1;align=center;shadow=0;dashed=0;image=img/lib/allied_telesis/switch/Switch_24_port_L2.svg;" vertex="1" parent="1">
          <mxGeometry x="1374.98" y="460" width="175.06" height="120" as="geometry" />
        </mxCell>
        <mxCell id="FqAO5_lso4-B0nuIC0QS-109" value="" style="image;points=[];aspect=fixed;html=1;align=center;shadow=0;dashed=0;image=img/lib/allied_telesis/switch/Switch_24_port_L2.svg;" vertex="1" parent="1">
          <mxGeometry x="1365.01" y="250" width="175.06" height="120" as="geometry" />
        </mxCell>
        <mxCell id="FqAO5_lso4-B0nuIC0QS-110" value="&lt;font style=&quot;font-size: 47px;&quot;&gt;Switch 1&lt;br&gt;&lt;/font&gt;" style="text;strokeColor=none;align=center;fillColor=none;html=1;verticalAlign=middle;whiteSpace=wrap;rounded=0;fontSize=60;" vertex="1" parent="1">
          <mxGeometry x="1315.03" y="180" width="240" height="70" as="geometry" />
        </mxCell>
        <mxCell id="FqAO5_lso4-B0nuIC0QS-111" value="&lt;font style=&quot;font-size: 47px;&quot;&gt;Switch 2&lt;br&gt;&lt;/font&gt;" style="text;strokeColor=none;align=center;fillColor=none;html=1;verticalAlign=middle;whiteSpace=wrap;rounded=0;fontSize=60;" vertex="1" parent="1">
          <mxGeometry x="1315.03" y="395" width="240" height="70" as="geometry" />
        </mxCell>
        <mxCell id="FqAO5_lso4-B0nuIC0QS-112" value="&lt;font style=&quot;font-size: 47px;&quot;&gt;Switch 1&lt;br&gt;&lt;/font&gt;" style="text;strokeColor=none;align=center;fillColor=none;html=1;verticalAlign=middle;whiteSpace=wrap;rounded=0;fontSize=60;" vertex="1" parent="1">
          <mxGeometry x="1310.04" y="590" width="240" height="70" as="geometry" />
        </mxCell>
      </root>
    </mxGraphModel>
  </diagram>
</mxfile>
